<svg width="28" height="24" viewBox="0 0 28 24" fill="none" xmlns="http://www.w3.org/2000/svg">
<path d="M19.4365 1H19.4395C20.3253 0.998083 21.2028 1.14402 22.0332 1.42871L22.3867 1.55859L22.3877 1.55957C23.1745 1.87105 23.8979 2.30589 24.5293 2.84375L24.7939 3.08008L24.7949 3.08105C25.4828 3.72479 26.0309 4.48791 26.4102 5.32715V5.32812C26.7542 6.09295 26.9496 6.8957 26.9912 7.7207L27 8.0752V8.07812C27 8.8562 26.8548 9.68112 26.5527 10.54L26.4131 10.9102L26.4121 10.9131C26.1245 11.6377 25.7159 12.4024 25.1924 13.1904L24.9609 13.5293C24.0805 14.7851 22.8961 16.109 21.4258 17.4697L20.7783 18.0557C18.5674 20.0071 16.3723 21.506 15.3682 22.1611L14.8047 22.5205H14.8037L14.0381 22.9902C14.0307 22.9947 14.0176 23 14 23C13.9824 23 13.9693 22.9947 13.9619 22.9902H13.9609L13.1953 22.5205L13.1885 22.5156L13.1797 22.5107L13.1406 22.4873C13.1139 22.4708 13.0766 22.4477 13.0293 22.418C12.9344 22.3583 12.8003 22.2722 12.6328 22.1631C12.2978 21.9448 11.8295 21.6326 11.2725 21.2402C10.296 20.5524 9.05204 19.6238 7.77246 18.5332L7.22168 18.0557L6.57422 17.4697C5.10387 16.109 3.91947 14.7851 3.03906 13.5293H3.03809C2.4038 12.6232 1.91887 11.7418 1.58594 10.9102H1.58691C1.19021 9.9176 1 8.96741 1 8.07812C1.00002 7.24525 1.15253 6.43358 1.4541 5.6582L1.59277 5.32812C1.9234 4.59334 2.38371 3.91651 2.95508 3.32812L3.20703 3.08203L3.20898 3.08008C3.81668 2.51067 4.51229 2.04666 5.28125 1.7002L5.61523 1.55957L5.61621 1.55859C6.54974 1.18757 7.53979 1 8.56641 1C9.90098 1.00002 11.2013 1.32766 12.3467 1.94531L12.5742 2.07324C12.7892 2.19874 12.9955 2.33328 13.1934 2.47656L13.3887 2.62305L14.002 3.09863L14.6143 2.62305C14.8066 2.47379 15.0075 2.33265 15.2168 2.20117L15.4297 2.07324C16.5541 1.41699 17.8412 1.04739 19.1709 1.00391L19.4365 1Z" stroke="#787887" stroke-width="2"/>
</svg>
